<svg width="22" height="22" viewBox="0 0 22 22" fill="none" xmlns="http://www.w3.org/2000/svg">
<g id="Tick Circle">
<path id="Vector" fill-rule="evenodd" clip-rule="evenodd" d="M10.9998 21.8332C16.9829 21.8332 21.8332 16.9829 21.8332 10.9998C21.8332 5.01675 16.9829 0.166504 10.9998 0.166504C5.01675 0.166504 0.166504 5.01675 0.166504 10.9998C0.166504 16.9829 5.01675 21.8332 10.9998 21.8332ZM17.0218 8.2918C17.3212 7.95748 17.2928 7.44381 16.9585 7.1445C16.6241 6.84518 16.1105 6.87356 15.8112 7.20788L12.1612 11.2847C11.4216 12.1107 10.9236 12.6641 10.4977 13.0221C10.0921 13.363 9.85381 13.4373 9.64567 13.4373C9.43753 13.4373 9.19927 13.363 8.79361 13.0221C8.36777 12.6641 7.8697 12.1107 7.13011 11.2847L6.18851 10.2329C5.88919 9.89862 5.37553 9.87024 5.04121 10.1696C4.70689 10.4689 4.67852 10.9825 4.97783 11.3169L5.95966 12.4135C6.6485 13.183 7.22306 13.8247 7.74805 14.266C8.30341 14.7328 8.90242 15.0623 9.64567 15.0623C10.3889 15.0623 10.9879 14.7328 11.5433 14.266C12.0683 13.8248 12.6428 13.183 13.3317 12.4135L17.0218 8.2918Z" fill="#FCFCFC"/>
</g>
</svg>
