<svg width="22" height="22" viewBox="0 0 22 22" fill="none" xmlns="http://www.w3.org/2000/svg">
<g id="Close Circle">
<path id="Vector" fill-rule="evenodd" clip-rule="evenodd" d="M10.9998 21.8332C16.9829 21.8332 21.8332 16.9829 21.8332 10.9998C21.8332 5.01675 16.9829 0.166504 10.9998 0.166504C5.01675 0.166504 0.166504 5.01675 0.166504 10.9998C0.166504 16.9829 5.01675 21.8332 10.9998 21.8332ZM13.8724 9.53912C14.1897 9.22182 14.1897 8.70738 13.8724 8.39008C13.5551 8.07278 13.0407 8.07278 12.7234 8.39008L10.9998 10.1136L9.27625 8.39008C8.95895 8.07278 8.4445 8.07278 8.1272 8.39008C7.8099 8.70738 7.8099 9.22183 8.1272 9.53913L9.85077 11.2627L8.1272 12.9863C7.8099 13.3036 7.8099 13.818 8.1272 14.1353C8.4445 14.4526 8.95895 14.4526 9.27625 14.1353L10.9998 12.4117L12.7234 14.1353C13.0407 14.4526 13.5551 14.4526 13.8724 14.1353C14.1897 13.818 14.1897 13.3036 13.8724 12.9863L12.1489 11.2627L13.8724 9.53912Z" fill="#FCFCFC"/>
</g>
</svg>
