<svg width="20" height="20" viewBox="0 0 20 20" fill="none" xmlns="http://www.w3.org/2000/svg">
<g id="Left Circle 1">
<path id="Vector" fill-rule="evenodd" clip-rule="evenodd" d="M20 10C20 15.5229 15.5228 20 10 20C4.47715 20 -6.78525e-07 15.5229 -4.37114e-07 10C-1.95703e-07 4.47716 4.47715 4.0104e-06 10 4.25181e-06C15.5228 4.49322e-06 20 4.47716 20 10ZM6 10.75C5.58579 10.75 5.25 10.4142 5.25 10C5.25 9.58579 5.58579 9.25 6 9.25L12.9362 9.25C12.9251 9.23579 12.9137 9.22129 12.9018 9.20649C12.6427 8.88387 12.2573 8.50033 11.6824 7.93054L10.272 6.5327C9.97784 6.24111 9.97572 5.76624 10.2673 5.47205C10.5589 5.17785 11.0338 5.17573 11.328 5.46731L12.7691 6.89566C13.3053 7.42704 13.7525 7.87023 14.0713 8.26725C14.4057 8.68367 14.6601 9.12131 14.7281 9.65451C14.7427 9.76921 14.75 9.8846 14.75 10C14.75 10.1154 14.7427 10.2308 14.7281 10.3455C14.6601 10.8787 14.4057 11.3163 14.0713 11.7328C13.7525 12.1298 13.3053 12.573 12.7691 13.1043L11.328 14.5327C11.0338 14.8243 10.5589 14.8222 10.2673 14.528C9.97572 14.2338 9.97784 13.7589 10.272 13.4673L11.6824 12.0695C12.2573 11.4997 12.6427 11.1161 12.9018 10.7935C12.9137 10.7787 12.9251 10.7642 12.9362 10.75L6 10.75Z" fill="#783525"/>
</g>
</svg>
