<svg width="25" height="25" viewBox="0 0 25 25" fill="none" xmlns="http://www.w3.org/2000/svg">
<g id="Document Align Left 12">
<g id="Vector">
<path fill-rule="evenodd" clip-rule="evenodd" d="M0.125061 12.5C0.125061 7.34412 0.125061 4.76618 1.43807 2.95898C1.86212 2.37533 2.37539 1.86206 2.95904 1.43801C4.76624 0.125 7.34418 0.125 12.5001 0.125C17.6559 0.125 20.2339 0.125 22.0411 1.43801C22.6247 1.86206 23.138 2.37533 23.5621 2.95898C24.8751 4.76618 24.8751 7.34412 24.8751 12.5C24.8751 17.6559 24.8751 20.2338 23.5621 22.041C23.138 22.6247 22.6247 23.1379 22.0411 23.562C20.2339 24.875 17.6559 24.875 12.5001 24.875C11.3465 24.875 10.322 24.875 9.40631 24.8603L9.40632 24.7639C9.40641 23.5923 9.40647 22.8787 9.30897 22.2632C8.77315 18.8802 6.1199 16.2269 2.73687 15.6911C2.12132 15.5936 1.40771 15.5937 0.236189 15.5937L0.139766 15.5937C0.125061 14.678 0.125061 13.6535 0.125061 12.5ZM7.00006 8.03125L11.1251 8.03125C11.6946 8.03125 12.1563 7.56954 12.1563 7C12.1563 6.43046 11.6946 5.96875 11.1251 5.96875L7.00006 5.96875C6.43052 5.96875 5.96881 6.43046 5.96881 7C5.96881 7.56954 6.43052 8.03125 7.00006 8.03125ZM5.96881 12.5C5.96881 13.0695 6.43052 13.5312 7.00006 13.5312L18.0001 13.5312C18.5696 13.5312 19.0313 13.0695 19.0313 12.5C19.0313 11.9305 18.5696 11.4687 18.0001 11.4687L7.00006 11.4688C6.43052 11.4688 5.96881 11.9305 5.96881 12.5Z" fill="#4D0F27"/>
<path d="M7.27186 22.5858C7.33903 23.0099 7.34363 23.5334 7.34381 24.7852C5.36432 24.6554 4.02708 24.338 2.95904 23.562C2.37539 23.1379 1.86212 22.6247 1.43807 22.041C0.66209 20.973 0.344709 19.6357 0.214899 17.6563C1.46662 17.6564 1.99019 17.661 2.41422 17.7282C4.91472 18.1242 6.87582 20.0853 7.27186 22.5858Z" fill="#4D0F27"/>
</g>
</g>
</svg>
