<svg width="84" height="84" viewBox="0 0 84 84" fill="none" xmlns="http://www.w3.org/2000/svg">
<g id="Document Add 3">
<g id="Vector">
<path fill-rule="evenodd" clip-rule="evenodd" d="M84 42C84 24.5012 84 15.7519 79.5437 9.61834C78.1045 7.63747 76.3625 5.89546 74.3817 4.45627C68.2481 0 59.4988 0 42 0C38.0849 0 34.6078 0 31.5 0.0499078L31.5 0.37716C31.5003 4.35324 31.5005 6.77517 31.1696 8.86433C29.3511 20.3461 20.3461 29.3511 8.86433 31.1696C6.77518 31.5005 4.35324 31.5003 0.377167 31.5L0.0499115 31.5C0 34.6078 0 38.0849 0 42C0 59.4987 0 68.2481 4.45627 74.3817C5.89545 76.3625 7.63747 78.1045 9.61835 79.5437C15.7519 84 24.5013 84 42 84C59.4988 84 68.2481 84 74.3817 79.5437C76.3625 78.1045 78.1045 76.3625 79.5437 74.3817C84 68.2481 84 59.4987 84 42ZM43.1667 32.6667C43.1667 30.7337 44.7337 29.1667 46.6667 29.1667C48.5997 29.1667 50.1667 30.7337 50.1667 32.6667L50.1667 43.1667H60.6667C62.5997 43.1667 64.1667 44.7337 64.1667 46.6667C64.1667 48.5997 62.5997 50.1667 60.6667 50.1667H50.1667V60.6667C50.1667 62.5997 48.5997 64.1667 46.6667 64.1667C44.7337 64.1667 43.1667 62.5997 43.1667 60.6667V50.1667H32.6667C30.7337 50.1667 29.1667 48.5997 29.1667 46.6667C29.1667 44.7337 30.7337 43.1667 32.6667 43.1667H43.1667V32.6667Z" fill="#783525"/>
<path d="M24.2558 7.76928C24.4838 6.33013 24.4994 4.55315 24.5 0.304903C17.7817 0.745473 13.2432 1.82264 9.61835 4.45627C7.63747 5.89546 5.89545 7.63747 4.45627 9.61834C1.82265 13.2432 0.745476 17.7817 0.304909 24.5C4.55315 24.4994 6.33013 24.4838 7.76929 24.2558C16.2558 22.9117 22.9117 16.2558 24.2558 7.76928Z" fill="#783525"/>
</g>
</g>
</svg>
