<svg width="18" height="23" viewBox="0 0 18 23" fill="none" xmlns="http://www.w3.org/2000/svg">
<g id="Notification 1">
<g id="Vector">
<path d="M8.09998 0.25C4.70442 0.25 2.07724 3.22603 2.49841 6.59536L2.57776 7.23021C2.69388 8.15916 2.35455 9.08706 1.66654 9.72195C0.240863 11.0375 -0.155232 13.1315 0.691418 14.8769L0.794769 15.09C1.58394 16.7169 3.23324 17.75 5.04147 17.75H13.2623C14.822 17.75 16.2736 16.9532 17.1111 15.6373C18.2932 13.7799 17.9801 11.3432 16.3668 9.84496L16.3229 9.8042C15.5844 9.11833 15.2208 8.11912 15.3458 7.11901L15.4104 6.60208C15.832 3.22918 13.202 0.25 9.80289 0.25H8.09998Z" fill="#FCFCFC"/>
<path d="M6.78339 19.55C6.53486 19.2186 6.06476 19.1515 5.73339 19.4C5.40202 19.6485 5.33487 20.1186 5.58339 20.45L5.88339 20.85C7.53339 23.05 10.8334 23.05 12.4834 20.85L12.7834 20.45C13.0319 20.1186 12.9648 19.6485 12.6334 19.4C12.302 19.1515 11.8319 19.2186 11.5834 19.55L11.2834 19.95C10.2334 21.35 8.13339 21.35 7.08339 19.95L6.78339 19.55Z" fill="#FCFCFC"/>
</g>
</g>
</svg>
