<svg width="25" height="29" viewBox="0 0 25 29" fill="none" xmlns="http://www.w3.org/2000/svg">
<g id="Document Add 4">
<g id="Vector">
<path fill-rule="evenodd" clip-rule="evenodd" d="M24.875 15.875C24.875 21.0309 24.875 23.6088 23.562 25.416C23.1379 25.9997 22.6247 26.5129 22.041 26.937C20.2338 28.25 17.6559 28.25 12.5 28.25C7.34412 28.25 4.76618 28.25 2.95898 26.937C2.37533 26.5129 1.86205 25.9997 1.43801 25.416C0.125 23.6088 0.125 21.0309 0.125 15.875V13.125C0.125 11.9715 0.125 10.9469 0.139705 10.0313L0.236128 10.0313C1.40765 10.0313 2.12126 10.0314 2.73681 9.93391C6.11984 9.39809 8.77309 6.74484 9.30891 3.36181C9.4064 2.74626 9.40635 2.03265 9.40626 0.861128L9.40625 0.764705C10.322 0.75 11.3465 0.75 12.5 0.75C17.6559 0.75 20.2338 0.75 22.041 2.06301C22.6247 2.48705 23.1379 3.00033 23.562 3.58398C24.875 5.39118 24.875 7.96912 24.875 13.125V15.875ZM11.4688 11.75C11.4688 11.1805 11.9305 10.7188 12.5 10.7188C13.0695 10.7188 13.5312 11.1805 13.5312 11.75V14.8438H16.625C17.1945 14.8438 17.6562 15.3055 17.6562 15.875C17.6562 16.4445 17.1945 16.9062 16.625 16.9062H13.5312V20C13.5312 20.5695 13.0695 21.0312 12.5 21.0312C11.9305 21.0312 11.4688 20.5695 11.4688 20V16.9062H8.375C7.80546 16.9062 7.34375 16.4445 7.34375 15.875C7.34375 15.3055 7.80546 14.8438 8.375 14.8438H11.4688V11.75Z" fill="#4D0F27"/>
<path d="M2.41416 7.8968C1.99013 7.96396 1.46655 7.96857 0.214837 7.96874C0.344648 5.98926 0.662028 4.65202 1.43801 3.58398C1.86205 3.00033 2.37533 2.48705 2.95898 2.06301C4.02702 1.28703 5.36426 0.969648 7.34374 0.839837C7.34357 2.09155 7.33896 2.61513 7.2718 3.03916C6.87576 5.53966 4.91466 7.50076 2.41416 7.8968Z" fill="#4D0F27"/>
</g>
</g>
</svg>
