<svg width="24" height="25" viewBox="0 0 24 25" fill="none" xmlns="http://www.w3.org/2000/svg">
<g id="Edit 2">
<g id="Vector">
<path d="M14.4387 22.8137C13.8692 22.8137 13.4075 23.2754 13.4075 23.8449C13.4075 24.4144 13.8692 24.8762 14.4387 24.8762H22.6887C23.2583 24.8762 23.72 24.4144 23.72 23.8449C23.72 23.2754 23.2583 22.8137 22.6887 22.8137H14.4387Z" fill="#4D0F27"/>
<path d="M15.5306 2.29107L15.6544 2.36257C16.7243 2.98024 17.6165 3.4953 18.2698 3.99943C18.9593 4.53155 19.5066 5.14232 19.7358 5.99782C19.9651 6.85332 19.7965 7.65591 19.4654 8.4615C19.2356 9.02067 18.8976 9.64903 18.4904 10.3658L17.6169 9.84656L17.6056 9.83996L8.08335 4.34226L7.19283 3.81741C7.60546 3.11466 7.97723 2.51443 8.34325 2.04013C8.87537 1.35059 9.48613 0.803305 10.3416 0.574074C11.1971 0.344842 11.9997 0.513424 12.8053 0.844525C13.5685 1.15821 14.4607 1.67334 15.5306 2.29107Z" fill="#4D0F27"/>
<path d="M6.15962 5.60253L1.37741 13.8854C0.967955 14.5933 0.644198 15.153 0.524249 15.7896C0.4043 16.4262 0.502182 17.0654 0.625974 17.8737L0.659326 18.0922C0.887832 19.5928 1.07618 20.8297 1.36026 21.7677C1.65735 22.7486 2.11407 23.5977 3.01231 24.1163C3.91056 24.6349 4.87425 24.6059 5.87235 24.3727C6.82669 24.1498 7.99204 23.6944 9.40586 23.142L9.61176 23.0616C10.3737 22.7647 10.9761 22.5299 11.4675 22.1077C11.9589 21.6855 12.2817 21.1253 12.69 20.4167L17.4609 12.1531L16.5687 11.6229L7.04009 6.12151L6.15962 5.60253Z" fill="#4D0F27"/>
</g>
</g>
</svg>
