<svg width="24" height="23" viewBox="0 0 24 23" fill="none" xmlns="http://www.w3.org/2000/svg">
<g id="Star 2">
<path id="Vector" d="M16.1645 3.27559C14.8538 -0.758531 9.14656 -0.758531 7.83579 3.27559C7.45041 4.46167 6.34513 5.26471 5.09801 5.26471C0.856281 5.26471 -0.907344 10.6926 2.52429 13.1858C3.53323 13.9188 3.95541 15.2182 3.57003 16.4043C2.25926 20.4384 6.87649 23.793 10.3081 21.2998C11.3171 20.5667 12.6833 20.5667 13.6922 21.2998C17.1238 23.793 21.7411 20.4384 20.4303 16.4043C20.0449 15.2182 20.4671 13.9188 21.476 13.1858C24.9077 10.6926 23.144 5.26471 18.9023 5.26471C17.6552 5.26471 16.5499 4.46167 16.1645 3.27559Z" fill="#FFBC80"/>
</g>
</svg>
