<svg width="33" height="31" viewBox="0 0 33 31" fill="none" xmlns="http://www.w3.org/2000/svg">
<g id="Star 1">
<path id="Vector" fill-rule="evenodd" clip-rule="evenodd" d="M10.7737 4.87894C12.576 -0.66798 20.4234 -0.66798 22.2257 4.87894C22.7556 6.5098 24.2754 7.61398 25.9902 7.61398C31.8226 7.61398 34.2476 15.0773 29.5291 18.5055C28.1418 19.5134 27.5613 21.3 28.0912 22.9309C29.8935 28.4778 23.5448 33.0904 18.8263 29.6622C17.439 28.6543 15.5605 28.6543 14.1732 29.6622C9.45468 33.0904 3.106 28.4778 4.9083 22.9309C5.4382 21.3 4.8577 19.5134 3.47041 18.5055C-1.24809 15.0773 1.1769 7.61398 7.00927 7.61398C8.72406 7.61398 10.2438 6.5098 10.7737 4.87894ZM20.2264 9.51244C20.0437 8.973 19.4583 8.68383 18.9188 8.86656C18.3794 9.04929 18.0902 9.63472 18.2729 10.1742C18.8657 11.9241 20.5469 13.0713 22.4018 13.0713C22.9714 13.0713 23.4331 12.6096 23.4331 12.04C23.4331 11.4705 22.9714 11.0088 22.4018 11.0088C21.385 11.0088 20.5211 10.3823 20.2264 9.51244Z" fill="#4D0F27"/>
</g>
</svg>
