<svg width="30" height="29" viewBox="0 0 30 29" fill="none" xmlns="http://www.w3.org/2000/svg">
<g id="Edit Square">
<g id="Vector">
<path d="M27.5313 15.4979L20.9341 22.0951C20.8891 22.1401 20.8418 22.1878 20.7924 22.2378C20.2816 22.7538 19.5341 23.5092 18.5571 23.9788C17.5801 24.4484 16.5233 24.5602 15.8013 24.6366C15.7313 24.644 15.6646 24.6511 15.6013 24.6581L15.4043 24.6801C14.0001 24.8365 12.6028 24.9921 11.4463 24.9547C10.1436 24.9127 8.48065 24.6177 7.12629 23.2633C5.77194 21.909 5.47695 20.246 5.43488 18.9433C5.39754 17.7869 5.55316 16.3895 5.70954 14.9853L5.73147 14.7883C5.73849 14.7251 5.74556 14.6583 5.75296 14.5884C5.82939 13.8664 5.94126 12.8095 6.41084 11.8325C6.88041 10.8555 7.63577 10.108 8.15182 9.59725C8.20177 9.54782 8.24955 9.50053 8.29454 9.45555L15.6549 2.09516C15.1873 2.09375 14.6985 2.09375 14.1873 2.09375H14.0628C11.5376 2.09374 9.55812 2.09373 7.98769 2.26388C6.38507 2.43751 5.08655 2.7982 3.97785 3.60371C3.30666 4.09136 2.71639 4.68163 2.22874 5.35282C1.42323 6.46152 1.06254 7.76004 0.888907 9.36265C0.718761 10.9331 0.71877 12.9125 0.718781 15.4378V15.5622C0.71877 18.0874 0.718761 20.0669 0.888907 21.6373C1.06254 23.24 1.42323 24.5385 2.22874 25.6472C2.71639 26.3184 3.30666 26.9086 3.97785 27.3963C5.08655 28.2018 6.38507 28.5625 7.98769 28.7361C9.55809 28.9063 11.5375 28.9063 14.0627 28.9062H14.1873C16.7125 28.9063 18.692 28.9063 20.2624 28.7361C21.865 28.5625 23.1635 28.2018 24.2722 27.3963C24.9434 26.9086 25.5337 26.3184 26.0213 25.6472C26.8268 24.5385 27.1875 23.24 27.3612 21.6373C27.5313 20.0669 27.5313 18.0875 27.5313 15.5624V15.4979Z" fill="#4D0F27"/>
<path d="M16.6654 4.48765L9.89654 11.2564C9.31782 11.8342 8.86024 12.291 8.5796 12.8749C8.29897 13.4588 8.22809 14.1015 8.13845 14.9143L8.11412 15.134C7.94645 16.6426 7.80825 17.8861 7.83988 18.8656C7.87296 19.8901 8.09436 20.8284 8.82777 21.5619C9.56119 22.2953 10.4996 22.5167 11.524 22.5497C12.5035 22.5814 13.747 22.4432 15.2556 22.2755L15.4754 22.2512C16.2881 22.1615 16.9309 22.0906 17.5147 21.81C18.0986 21.5294 18.5555 21.0718 19.1332 20.4931L25.9048 13.7214L25.1681 13.0151L17.3698 5.21674L16.6654 4.48765Z" fill="#4D0F27"/>
<path d="M27.3619 12.2611C27.93 11.6843 28.4105 11.1727 28.772 10.6988C29.3003 10.0064 29.6709 9.27477 29.6709 8.38909C29.6709 7.50341 29.3003 6.7718 28.772 6.07935C28.2714 5.4233 27.543 4.69487 26.6693 3.82131L26.5683 3.72024C25.6947 2.84665 24.9663 2.11817 24.3103 1.61763C23.6178 1.08931 22.8862 0.71875 22.0005 0.71875C21.1149 0.71875 20.3832 1.08931 19.6908 1.61763C19.2161 1.97978 18.7036 2.46125 18.1256 3.03068L18.8469 3.77703L26.6111 11.5412L27.3619 12.2611Z" fill="#4D0F27"/>
</g>
</g>
</svg>
